<svg width="150" height="150" xmlns="http://www.w3.org/2000/svg" xlink="http://www.w3.org/1999/xlink">

 <g>
  <title>Layer 1</title>
  <g id="svg_5">
   <path id="svg_1" opacity="0.8" fill="#ffffff" d="m91.665,84.12l0,-25.79l15.5,0a23.1,23.1 0 0 1 18.63,18.51l0,14.83l-26.63,0a7.55,7.55 0 0 1 -7.5,-7.55z"/>
   <path id="svg_2" fill="#ffffff" d="m58.325,50.79l0,-25.79l31.91,0a4.67,4.67 0 0 1 3.3,1.36l30.94,31a4.66,4.66 0 0 1 1.36,3.29l0,16.19a23.1,23.1 0 0 0 -18.67,-18.51l-41.29,0a7.54,7.54 0 0 1 -7.55,-7.54z"/>
   <path id="svg_3" opacity="0.8" fill="#ffffff" d="m58.345,65.88l0,25.79l-15.54,0a23.12,23.12 0 0 1 -18.64,-18.51l0,-14.83l26.63,0a7.55,7.55 0 0 1 7.55,7.55z"/>
   <path id="svg_4" fill="#ffffff" d="m91.675,99.21l0,25.79l-31.91,0a4.66,4.66 0 0 1 -3.29,-1.36l-30.95,-30.95a4.66,4.66 0 0 1 -1.36,-3.29l0,-16.24a23.12,23.12 0 0 0 18.64,18.51l41.36,0a7.54,7.54 0 0 1 7.51,7.54z"/>
  </g>
 </g>
</svg>